<svg xmlns="http://www.w3.org/2000/svg" viewBox="0 0 24 24"><g id="chart-line"><path d="M4.5 20.25a0.76 0.76 0 0 1-0.75-0.75v-15a0.75 0.75 0 0 1 1.5 0v15a0.76 0.76 0 0 1-0.75 0.75"/><path d="M19.5 20.25h-15a0.75 0.75 0 0 1 0-1.5h15a0.75 0.75 0 0 1 0 1.5"/><path d="M14 14.75a0.74 0.74 0 0 1-0.53-0.22L11 12.06l-2.47 2.47a0.75 0.75 0 0 1-1.06-1.06l3-3a0.75 0.75 0 0 1 1.06 0L14 12.94l3.47-3.47a0.75 0.75 0 0 1 1.06 1.06l-4 4a0.74 0.74 0 0 1-0.53 0.22"/><path d="M18.5 13.84a0.76 0.76 0 0 1-0.75-0.75v-2.84H15a0.75 0.75 0 0 1 0-1.5h3.5a0.76 0.76 0 0 1 0.75 0.75v3.59a0.76 0.76 0 0 1-0.75 0.75"/></g></svg>