<svg xmlns="http://www.w3.org/2000/svg" viewBox="0 0 24 24"><g id="delete-left"><path d="M17.23 9.78L15.01 12l2.22 2.22c0.29 0.29 0.29 0.77 0 1.06-0.15 0.15-0.34 0.22-0.53 0.22s-0.38-0.07-0.53-0.22l-2.22-2.22-2.22 2.22c-0.15 0.15-0.34 0.22-0.53 0.22s-0.38-0.07-0.53-0.22a0.754 0.754 0 0 1 0-1.06L12.89 12l-2.22-2.22c-0.29-0.29-0.29-0.77 0-1.06s0.77-0.29 1.06 0l2.22 2.22 2.22-2.22c0.29-0.29 0.77-0.29 1.06 0s0.29 0.77 0 1.06M21.32 7v10c0 0.96-0.78 1.75-1.75 1.75H7.64c-0.61 0-1.16-0.31-1.48-0.82l-3.29-5.27c-0.25-0.4-0.25-0.92 0-1.33l3.29-5.26c0.32-0.51 0.88-0.82 1.48-0.82h11.94c0.96 0 1.75 0.79 1.75 1.75Zm-1.5 0c0-0.14-0.11-0.25-0.25-0.25H7.64c-0.09 0-0.17 0.04-0.21 0.12L4.22 12l3.21 5.13c0.05 0.07 0.13 0.12 0.21 0.12h11.94c0.14 0 0.25-0.11 0.25-0.25V7Z"/></g></svg>