<svg xmlns="http://www.w3.org/2000/svg" viewBox="0 0 24 24"><g id="money-bill"><path d="M19 5.25H5A1.76 1.76 0 0 0 3.25 7v10A1.76 1.76 0 0 0 5 18.75h14A1.76 1.76 0 0 0 20.75 17V7A1.76 1.76 0 0 0 19 5.25M19.25 7v1.67h-0.21a1.5 1.5 0 0 1-0.36 0h-0.13a2 2 0 0 1-0.33-0.1h-0.12a1.3 1.3 0 0 1-0.38-0.28 1.58 1.58 0 0 1-0.47-1.12 1.5 1.5 0 0 1 0.06-0.41H19a0.25 0.25 0 0 1 0.25 0.24M5 6.75h1.69a1.5 1.5 0 0 1 0.06 0.41 1.58 1.58 0 0 1-0.47 1.12 1.5 1.5 0 0 1-0.38 0.28h-0.13a1.1 1.1 0 0 1-0.31 0.1h-0.14a1.5 1.5 0 0 1-0.36 0h-0.21V7A0.25 0.25 0 0 1 5 6.75M4.75 17v-1.67h0.21a1.5 1.5 0 0 1 0.36 0h0.13a1.3 1.3 0 0 1 0.33 0.1h0.12a1.5 1.5 0 0 1 0.38 0.28 1.58 1.58 0 0 1 0.47 1.12 1.5 1.5 0 0 1-0.06 0.41H5a0.25 0.25 0 0 1-0.25-0.24m3.47 0.25a3 3 0 0 0 0-0.41 3 3 0 0 0-0.91-2.18 2.6 2.6 0 0 0-0.49-0.39l-0.17-0.11a3 3 0 0 0-0.36-0.16l-0.2-0.08a3.3 3.3 0 0 0-0.53-0.11 1.6 1.6 0 0 0-0.31 0h-0.5v-3.59h0.85a3 3 0 0 0 0.4-0.1l0.22-0.07a2.5 2.5 0 0 0 0.44-0.2l0.16-0.09a3.4 3.4 0 0 0 0.52-0.42 3 3 0 0 0 0.91-2.18 3 3 0 0 0 0-0.41h7.56a3 3 0 0 0 0 0.41 3 3 0 0 0 0.91 2.18 3 3 0 0 0 0.52 0.42l0.16 0.09a2.5 2.5 0 0 0 0.44 0.2l0.22 0.07a3 3 0 0 0 0.41 0.09h0.84v3.56h-0.5a1.6 1.6 0 0 0-0.31 0 3.3 3.3 0 0 0-0.53 0.11l-0.2 0.08a3 3 0 0 0-0.39 0.18l-0.17 0.11a2.6 2.6 0 0 0-0.49 0.39 3 3 0 0 0-0.91 2.18 3 3 0 0 0 0 0.41Zm10.78 0h-1.69a1.5 1.5 0 0 1-0.06-0.41 1.58 1.58 0 0 1 0.47-1.12 1.3 1.3 0 0 1 0.38-0.28h0.12a2 2 0 0 1 0.33-0.1h0.13a1.5 1.5 0 0 1 0.36 0h0.21V17a0.25 0.25 0 0 1-0.25 0.25"/><path d="M12 8.5a3.5 3.5 0 1 0 3.5 3.5A3.5 3.5 0 0 0 12 8.5m0 5.5a2 2 0 1 1 2-2 2 2 0 0 1-2 2"/></g></svg>