<svg xmlns="http://www.w3.org/2000/svg" viewBox="0 0 24 24"><g id="reddit"><path d="M10.24 13.6a0.8 0.8 0 1 1 0.8-0.8 0.8 0.8 0 0 1-0.8 0.8M20 12a8 8 0 1 1-8-8 8 8 0 0 1 8 8m-4.27-1.33A1.12 1.12 0 0 0 15 11a5.13 5.13 0 0 0-2.77-0.85l0.56-2.53 1.79 0.4a0.79 0.79 0 0 0 0.79 0.8 0.81 0.81 0 0 0 0.8-0.81 0.79 0.79 0 0 0-1.51-0.35l-2-0.44a0.19 0.19 0 0 0-0.22 0.14l-0.62 2.79a5.2 5.2 0 0 0-2.77 0.85 1.07 1.07 0 1 0-1.25 1.7 2.7 2.7 0 0 0 0 0.5c0 1.69 1.91 3.07 4.26 3.07s4.26-1.38 4.26-3.07a2.2 2.2 0 0 0-0.06-0.51 1.07 1.07 0 0 0-0.48-2Zm-2.22 3.75a2.82 2.82 0 0 1-3 0 0.2 0.2 0 0 0-0.27 0 0.19 0.19 0 0 0 0 0.28 3.17 3.17 0 0 0 3.56 0 0.19 0.19 0 0 0 0-0.28 0.2 0.2 0 0 0-0.29 0m0.25-2.42a0.8 0.8 0 1 0 0.8 0.8 0.8 0.8 0 0 0-0.8-0.8"/></g></svg>