<svg xmlns="http://www.w3.org/2000/svg" viewBox="0 0 24 24"><g id="users"><path d="M14 12.25a3.75 3.75 0 1 1 3.75-3.75A3.75 3.75 0 0 1 14 12.25m0-6a2.25 2.25 0 1 0 2.25 2.25A2.25 2.25 0 0 0 14 6.25"/><path d="M21 19.25a0.76 0.76 0 0 1-0.75-0.75c0-1.95-1.06-3.25-6.25-3.25s-6.25 1.3-6.25 3.25a0.75 0.75 0 0 1-1.5 0c0-4.75 5.43-4.75 7.75-4.75s7.75 0 7.75 4.75a0.76 0.76 0 0 1-0.75 0.75"/><path d="M8.32 13.06H8a3 3 0 1 1 0.58-6 0.75 0.75 0 1 1-0.15 1.49 1.46 1.46 0 0 0-1.09 0.34 1.47 1.47 0 0 0-0.54 1 1.49 1.49 0 0 0 1.35 1.64 1.53 1.53 0 0 0 0.93-0.22 0.75 0.75 0 0 1 0.79 1.28 3 3 0 0 1-1.55 0.47"/><path d="M3 18.5a0.76 0.76 0 0 1-0.75-0.75c0-2.7 0.72-4.5 4.25-4.5a0.75 0.75 0 0 1 0 1.5c-2.35 0-2.75 0.75-2.75 3a0.76 0.76 0 0 1-0.75 0.75"/></g></svg>